<svg xmlns="http://www.w3.org/2000/svg" viewBox="0 0 512 512" role="img" aria-labelledby="title desc">
  <title id="title">Alive-AI logo</title>
  <desc id="desc">A neural core wrapped by a heartbeat pulse.</desc>
  <rect width="512" height="512" rx="112" fill="#080b0f"/>
  <circle cx="256" cy="256" r="154" fill="none" stroke="#f5f7fb" stroke-width="12" opacity="0.18"/>
  <path d="M86 274h72l30-70 47 148 50-201 40 123h101" fill="none" stroke="#41f0a1" stroke-width="18" stroke-linecap="round" stroke-linejoin="round"/>
  <path d="M151 335c35 48 91 77 153 69 83-11 145-84 138-168-7-91-89-160-180-150-51 6-96 36-121 80" fill="none" stroke="#ff5c8a" stroke-width="14" stroke-linecap="round"/>
  <circle cx="256" cy="256" r="57" fill="#101820" stroke="#f5f7fb" stroke-width="10"/>
  <circle cx="256" cy="256" r="15" fill="#41f0a1"/>
  <circle cx="216" cy="224" r="10" fill="#ffcf5a"/>
  <circle cx="301" cy="223" r="10" fill="#ff5c8a"/>
  <circle cx="221" cy="295" r="10" fill="#f5f7fb"/>
  <circle cx="300" cy="294" r="10" fill="#41f0a1"/>
  <path d="M226 229l30 27 45-31M256 256l-35 39M256 256l44 38" fill="none" stroke="#f5f7fb" stroke-width="7" stroke-linecap="round"/>
</svg>
